<svg width="38" height="39" viewBox="0 0 38 39" fill="none" xmlns="http://www.w3.org/2000/svg">
<path d="M11.9036 31.6096C13.5457 31.6096 14.877 32.9385 14.877 34.5776C14.877 36.2167 13.5457 37.5456 11.9036 37.5456C10.2614 37.5456 8.93018 36.2167 8.93018 34.5776C8.93018 32.9385 10.2614 31.6096 11.9036 31.6096Z" stroke="white" stroke-width="2"/>
<path d="M29.7439 31.6096C31.386 31.6096 32.7173 32.9383 32.7173 34.5776C32.7173 36.2167 31.386 37.5456 29.7439 37.5456C28.1018 37.5456 26.7705 36.2167 26.7705 34.5776C26.7705 32.9383 28.1018 31.6096 29.7439 31.6096Z" stroke="white" stroke-width="2"/>
<path d="M18.8403 13.8015H12.8936" stroke="white" stroke-width="2" stroke-linecap="round"/>
<path d="M1 1.92969L1.52512 2.1044C4.14178 2.97505 5.45012 3.41035 6.19844 4.44673C6.94678 5.48309 6.94678 6.85968 6.94678 9.61288V14.7909C6.94678 20.3874 6.94678 23.1856 8.68856 24.9242C10.4303 26.6629 13.2337 26.6629 18.8403 26.6629H22.8049M34.6984 26.6629H30.7339" stroke="white" stroke-width="2" stroke-linecap="round"/>
<path d="M6.94727 7.86572H12.894M7.9384 21.7163H28.7954C30.6971 21.7163 31.648 21.7163 32.3928 21.2262C33.1375 20.7359 33.5121 19.8635 34.2612 18.1187L35.1108 16.1401C36.7155 12.4027 37.5179 10.534 36.6366 9.19985C35.7551 7.86572 33.7185 7.86572 29.6449 7.86572H20.8231" stroke="white" stroke-width="2" stroke-linecap="round"/>
</svg>
