<svg width="26" height="26" viewBox="0 0 26 26" fill="none" xmlns="http://www.w3.org/2000/svg">
<path d="M12.9999 13C14.9881 13 16.5999 11.3882 16.5999 9.4C16.5999 7.41178 14.9881 5.8 12.9999 5.8C11.0117 5.8 9.3999 7.41178 9.3999 9.4C9.3999 11.3882 11.0117 13 12.9999 13Z" stroke="black" stroke-width="2"/>
<path d="M20.1629 22.6C19.972 19.1302 18.9096 16.6 12.9999 16.6C7.09025 16.6 6.02789 19.1302 5.83691 22.6" stroke="black" stroke-width="2" stroke-linecap="round"/>
<path d="M7 2.60538C8.76504 1.58436 10.8143 1 13 1C19.6274 1 25 6.37258 25 13C25 19.6274 19.6274 25 13 25C6.37258 25 1 19.6274 1 13C1 10.8143 1.58436 8.76504 2.60538 7" stroke="black" stroke-width="2" stroke-linecap="round"/>
</svg>
