<svg width="29" height="15" viewBox="0 0 29 15" fill="none" xmlns="http://www.w3.org/2000/svg">
<path d="M28.7586 8.09941C28.8349 8.02183 28.8954 7.9298 28.9366 7.82857C28.9784 7.72779 29 7.61956 29 7.51024C29 7.40092 28.9784 7.29269 28.9366 7.19191C28.8954 7.09068 28.8349 6.99865 28.7586 6.92107L22.1677 0.254407C22.0917 0.174815 22.0008 0.11133 21.9003 0.0676557C21.7998 0.0239816 21.6917 0.000992978 21.5823 3.14639e-05C21.4729 -0.00093005 21.3644 0.0201547 21.2631 0.0620555C21.1619 0.103956 21.0699 0.165834 20.9925 0.244078C20.9152 0.322322 20.854 0.415365 20.8126 0.517778C20.7712 0.620192 20.7503 0.729925 20.7513 0.840575C20.7522 0.951224 20.7749 1.06057 20.8181 1.16224C20.8613 1.26391 20.9241 1.35587 21.0028 1.43274L26.1873 6.67691H0.823863C0.60536 6.67691 0.395807 6.7647 0.241302 6.92098C0.0867981 7.07726 -9.53674e-07 7.28923 -9.53674e-07 7.51024C-9.53674e-07 7.73125 0.0867981 7.94321 0.241302 8.0995C0.395807 8.25578 0.60536 8.34357 0.823863 8.34357H26.1873L21.0028 13.5877C20.8527 13.7449 20.7696 13.9554 20.7715 14.1739C20.7734 14.3924 20.86 14.6014 21.0128 14.7559C21.1655 14.9104 21.3722 14.9981 21.5882 15C21.8042 15.0019 22.0123 14.9179 22.1677 14.7661L28.7586 8.09941Z" fill="white"/>
</svg>
