<svg width="24" height="12" viewBox="0 0 24 12" fill="none" xmlns="http://www.w3.org/2000/svg">
<path d="M0.199776 6.47953C0.13661 6.41746 0.0865661 6.34384 0.0525034 6.26286C0.0178497 6.18223 0 6.09565 0 6.00819C0 5.92073 0.0178497 5.83415 0.0525034 5.75353C0.0865661 5.67255 0.13661 5.59892 0.199776 5.53686L5.65432 0.203525C5.71722 0.139852 5.79245 0.0890639 5.87564 0.0541246C5.95882 0.0191852 6.04829 0.000794382 6.13882 2.51711e-05C6.22935 -0.00074404 6.31913 0.0161238 6.40293 0.0496444C6.48672 0.083165 6.56284 0.132667 6.62686 0.195262C6.69088 0.257857 6.74151 0.332292 6.77579 0.414223C6.81007 0.496154 6.82732 0.58394 6.82654 0.67246C6.82575 0.760979 6.80694 0.848459 6.77121 0.929795C6.73547 1.01113 6.68353 1.08469 6.61841 1.14619L2.32773 5.34153H23.3182C23.499 5.34153 23.6724 5.41176 23.8003 5.53679C23.9282 5.66181 24 5.83138 24 6.00819C24 6.185 23.9282 6.35457 23.8003 6.4796C23.6724 6.60462 23.499 6.67486 23.3182 6.67486H2.32773L6.61841 10.8702C6.74261 10.9959 6.81133 11.1643 6.80978 11.3391C6.80823 11.5139 6.73652 11.6811 6.61011 11.8047C6.48369 11.9283 6.31268 11.9985 6.13391 12C5.95514 12.0015 5.78291 11.9343 5.65432 11.8129L0.199776 6.47953Z" fill="black"/>
</svg>
