<svg width="38" height="39" viewBox="0 0 38 39" fill="none" xmlns="http://www.w3.org/2000/svg">
<path d="M11.9031 31.6095C13.5452 31.6095 14.8765 32.9384 14.8765 34.5775C14.8765 36.2166 13.5452 37.5455 11.9031 37.5455C10.2609 37.5455 8.92969 36.2166 8.92969 34.5775C8.92969 32.9384 10.2609 31.6095 11.9031 31.6095Z" stroke="black" stroke-width="2"/>
<path d="M29.7439 31.6095C31.386 31.6095 32.7173 32.9382 32.7173 34.5775C32.7173 36.2166 31.386 37.5455 29.7439 37.5455C28.1018 37.5455 26.7705 36.2166 26.7705 34.5775C26.7705 32.9382 28.1018 31.6095 29.7439 31.6095Z" stroke="black" stroke-width="2"/>
<path d="M18.8403 13.8015H12.8936" stroke="black" stroke-width="2" stroke-linecap="round"/>
<path d="M1 1.92969L1.52512 2.1044C4.14178 2.97505 5.45012 3.41035 6.19844 4.44673C6.94678 5.48309 6.94678 6.85968 6.94678 9.61288V14.7909C6.94678 20.3874 6.94678 23.1856 8.68856 24.9242C10.4303 26.6629 13.2337 26.6629 18.8403 26.6629H22.8049M34.6984 26.6629H30.7339" stroke="black" stroke-width="2" stroke-linecap="round"/>
<path d="M6.94727 7.86566H12.894M7.9384 21.7162H28.7954C30.6971 21.7162 31.648 21.7162 32.3928 21.2261C33.1375 20.7358 33.5121 19.8634 34.2612 18.1187L35.1108 16.14C36.7155 12.4026 37.5179 10.5339 36.6366 9.19979C35.7551 7.86566 33.7185 7.86566 29.6449 7.86566H20.8231" stroke="black" stroke-width="2" stroke-linecap="round"/>
</svg>
