<svg width="250" height="60" viewBox="0 0 250 60" fill="none" xmlns="http://www.w3.org/2000/svg">
<path d="M233.582 50.554C227.996 50.554 223.63 49.0987 220.484 46.188C217.337 43.238 215.764 38.9507 215.764 33.326C215.764 27.7014 217.337 23.4337 220.484 20.523C223.63 17.573 227.996 16.098 233.582 16.098C239.128 16.098 243.12 17.5534 245.559 20.464C248.037 23.3354 249.276 26.9147 249.276 31.202V35.45H230.16V35.804C230.16 37.2594 230.592 38.341 231.458 39.049C232.323 39.7177 233.759 40.052 235.765 40.052C238.164 40.052 240.445 39.875 242.609 39.521C244.772 39.167 246.66 38.7147 248.273 38.164V47.604C246.896 48.3514 244.87 49.0397 242.196 49.669C239.56 50.259 236.689 50.554 233.582 50.554ZM237.004 28.96V28.252C237.004 26.9147 236.709 25.951 236.119 25.361C235.568 24.771 234.722 24.476 233.582 24.476C232.441 24.476 231.576 24.7907 230.986 25.42C230.435 26.01 230.16 26.954 230.16 28.252V28.96H237.004Z" fill="#FCB906"/>
<path d="M203.954 50.554C199.784 50.554 196.638 49.551 194.514 47.545C192.429 45.4997 191.387 42.0777 191.387 37.279V26.6H188.791V16.924C190.285 16.924 191.406 16.5504 192.154 15.803C192.901 15.0164 193.275 13.9544 193.275 12.617V9.96203H205.783V16.924H213.748V26.6H205.783V36.276C205.783 37.574 206.058 38.5377 206.609 39.167C207.199 39.757 208.064 40.052 209.205 40.052C210.699 40.052 212.332 39.875 214.102 39.521V48.784C213 49.2167 211.506 49.61 209.618 49.964C207.769 50.3574 205.881 50.554 203.954 50.554Z" fill="#FCB906"/>
<path d="M171.816 13.679V3.82603H183.852V13.679H171.816ZM168.984 49.728V40.052H171.58V26.6H168.984V16.924H185.15V40.052H187.746V49.728H168.984Z" fill="#FCB906"/>
<path d="M123.354 40.052H126.304V13.502H123.354V3.82603H150.435C155.352 3.82603 159.187 4.82903 161.94 6.83503C164.693 8.84103 166.07 11.7124 166.07 15.449C166.07 17.7697 165.519 19.7364 164.418 21.349C163.317 22.9224 162.019 24.122 160.524 24.948C159.069 25.7347 157.653 26.2657 156.276 26.541V27.131C159.069 27.4064 161.586 28.2914 163.828 29.786C166.07 31.2807 167.191 33.9554 167.191 37.81C167.191 41.94 165.637 44.9687 162.53 46.896C159.423 48.784 155.391 49.728 150.435 49.728H123.354V40.052ZM146.01 23.178C147.151 23.178 147.996 22.883 148.547 22.293C149.137 21.6637 149.432 20.7 149.432 19.402V17.278C149.432 15.98 149.137 15.036 148.547 14.446C147.996 13.8167 147.151 13.502 146.01 13.502H142.824V23.178H146.01ZM146.423 40.052C147.564 40.052 148.409 39.757 148.96 39.167C149.55 38.5377 149.845 37.574 149.845 36.276V33.68C149.845 32.382 149.55 31.438 148.96 30.848C148.409 30.2187 147.564 29.904 146.423 29.904H142.824V40.052H146.423Z" fill="#FCB906"/>
<path d="M125.349 13.924V23.6H123.107L115.378 44.073C113.45 49.2257 111.248 53.0804 108.77 55.637C106.292 58.233 103.027 59.531 98.9757 59.531C97.3237 59.531 95.6521 59.354 93.9607 59C92.2694 58.6854 90.7354 58.233 89.3587 57.643V46.964H97.5007V47.554C97.5007 48.5374 98.0121 49.029 99.0347 49.029C99.9394 49.029 100.628 48.5964 101.1 47.731L91.7777 23.6H89.5357V13.924H107.059V23.6H105.053L108.121 32.804L110.953 23.6H108.947V13.924H125.349Z" fill="#624BA1"/>
<path d="M77.7846 47.554C73.6153 47.554 70.4686 46.551 68.3446 44.545C66.2599 42.4997 65.2176 39.0777 65.2176 34.279V23.6H62.6216V13.924C64.1163 13.924 65.2373 13.5504 65.9846 12.803C66.7319 12.0164 67.1056 10.9544 67.1056 9.61703V6.96203H79.6136V13.924H87.5786V23.6H79.6136V33.276C79.6136 34.574 79.8889 35.5377 80.4396 36.167C81.0296 36.757 81.8949 37.052 83.0356 37.052C84.5303 37.052 86.1626 36.875 87.9326 36.521V45.784C86.8313 46.2167 85.3366 46.61 83.4486 46.964C81.5999 47.3574 79.7119 47.554 77.7846 47.554Z" fill="#624BA1"/>
<path d="M45.6471 10.679V0.826027H57.6831V10.679H45.6471ZM42.8151 46.728V37.052H45.4111V23.6H42.8151V13.924H58.9811V37.052H61.5771V46.728H42.8151Z" fill="#624BA1"/>
<path d="M23.246 47.554C15.812 47.554 10.0693 45.666 6.01801 41.89C2.00601 38.114 7.62939e-06 32.0764 7.62939e-06 23.777C7.62939e-06 7.92569 7.70934 2.28882e-05 23.128 2.28882e-05C26.8647 2.28882e-05 30.326 0.452357 33.512 1.35702C36.7373 2.26169 39.1367 3.26469 40.71 4.36602V19.116H26.55V14.868C26.55 13.3734 26.2157 12.272 25.547 11.564C24.8783 10.856 23.8753 10.502 22.538 10.502C21.2007 10.502 20.1977 10.856 19.529 11.564C18.8603 12.272 18.526 13.3734 18.526 14.868V32.686C18.526 34.1807 18.8603 35.282 19.529 35.99C20.1977 36.698 21.2007 37.052 22.538 37.052C23.8753 37.052 24.8783 36.698 25.547 35.99C26.2157 35.282 26.55 34.1807 26.55 32.686V27.907H40.71V43.188C39.0973 44.2894 36.698 45.2924 33.512 46.197C30.3653 47.1017 26.9433 47.554 23.246 47.554Z" fill="#624BA1"/>
</svg>
