<svg width="44" height="21" viewBox="0 0 44 21" fill="none" xmlns="http://www.w3.org/2000/svg">
<rect width="44" height="21" rx="2" fill="#E25454"/>
<path d="M13.1303 15.1C12.397 15.1 11.767 14.9533 11.2403 14.66C10.7203 14.36 10.3203 13.94 10.0403 13.4C9.76031 12.8533 9.62031 12.21 9.62031 11.47C9.62031 10.73 9.76031 10.09 10.0403 9.55C10.3203 9.01 10.7203 8.59333 11.2403 8.3C11.767 8 12.397 7.85 13.1303 7.85C13.6236 7.85 14.067 7.92 14.4603 8.06C14.8603 8.2 15.2036 8.40667 15.4903 8.68L15.0703 9.7C14.757 9.44667 14.4536 9.26667 14.1603 9.16C13.8736 9.04667 13.5436 8.99 13.1703 8.99C12.457 8.99 11.9103 9.20667 11.5303 9.64C11.157 10.0667 10.9703 10.6767 10.9703 11.47C10.9703 12.2633 11.157 12.8767 11.5303 13.31C11.9103 13.7433 12.457 13.96 13.1703 13.96C13.5436 13.96 13.8736 13.9067 14.1603 13.8C14.4536 13.6867 14.757 13.5 15.0703 13.24L15.4903 14.26C15.2036 14.5267 14.8603 14.7333 14.4603 14.88C14.067 15.0267 13.6236 15.1 13.1303 15.1ZM16.596 15V7.64H17.846V15H16.596ZM21.4834 15.1C20.9634 15.1 20.5134 14.9933 20.1334 14.78C19.7534 14.5667 19.4568 14.2633 19.2434 13.87C19.0368 13.4767 18.9334 13.01 18.9334 12.47C18.9334 11.93 19.0368 11.4667 19.2434 11.08C19.4568 10.6867 19.7534 10.3833 20.1334 10.17C20.5134 9.95667 20.9634 9.85 21.4834 9.85C22.0034 9.85 22.4534 9.95667 22.8334 10.17C23.2201 10.3833 23.5168 10.6867 23.7234 11.08C23.9368 11.4667 24.0434 11.93 24.0434 12.47C24.0434 13.01 23.9368 13.4767 23.7234 13.87C23.5168 14.2633 23.2201 14.5667 22.8334 14.78C22.4534 14.9933 22.0034 15.1 21.4834 15.1ZM21.4834 14.14C21.8768 14.14 22.1901 14.0033 22.4234 13.73C22.6568 13.45 22.7734 13.03 22.7734 12.47C22.7734 11.91 22.6568 11.4933 22.4234 11.22C22.1901 10.9467 21.8768 10.81 21.4834 10.81C21.0901 10.81 20.7768 10.9467 20.5434 11.22C20.3101 11.4933 20.1934 11.91 20.1934 12.47C20.1934 13.03 20.3101 13.45 20.5434 13.73C20.7768 14.0033 21.0901 14.14 21.4834 14.14ZM26.9214 15.1C26.4881 15.1 26.0881 15.05 25.7214 14.95C25.3614 14.8433 25.0581 14.6967 24.8114 14.51L25.1614 13.67C25.4147 13.8433 25.6947 13.9767 26.0014 14.07C26.3081 14.1633 26.6181 14.21 26.9314 14.21C27.2647 14.21 27.5114 14.1533 27.6714 14.04C27.8381 13.9267 27.9214 13.7733 27.9214 13.58C27.9214 13.4267 27.8681 13.3067 27.7614 13.22C27.6614 13.1267 27.4981 13.0567 27.2714 13.01L26.2714 12.82C25.8447 12.7267 25.5181 12.5667 25.2914 12.34C25.0714 12.1133 24.9614 11.8167 24.9614 11.45C24.9614 11.1367 25.0447 10.86 25.2114 10.62C25.3847 10.38 25.6281 10.1933 25.9414 10.06C26.2614 9.92 26.6347 9.85 27.0614 9.85C27.4347 9.85 27.7847 9.9 28.1114 10C28.4447 10.1 28.7247 10.25 28.9514 10.45L28.5914 11.26C28.3847 11.0933 28.1481 10.9633 27.8814 10.87C27.6147 10.7767 27.3547 10.73 27.1014 10.73C26.7547 10.73 26.5014 10.7933 26.3414 10.92C26.1814 11.04 26.1014 11.1967 26.1014 11.39C26.1014 11.5367 26.1481 11.66 26.2414 11.76C26.3414 11.8533 26.4947 11.9233 26.7014 11.97L27.7014 12.16C28.1481 12.2467 28.4847 12.4 28.7114 12.62C28.9447 12.8333 29.0614 13.1267 29.0614 13.5C29.0614 13.8333 28.9714 14.12 28.7914 14.36C28.6114 14.6 28.3614 14.7833 28.0414 14.91C27.7214 15.0367 27.3481 15.1 26.9214 15.1ZM32.5712 15.1C31.7245 15.1 31.0612 14.8667 30.5812 14.4C30.1012 13.9333 29.8612 13.2933 29.8612 12.48C29.8612 11.9533 29.9645 11.4933 30.1712 11.1C30.3778 10.7067 30.6645 10.4 31.0312 10.18C31.4045 9.96 31.8378 9.85 32.3312 9.85C32.8178 9.85 33.2245 9.95333 33.5512 10.16C33.8778 10.3667 34.1245 10.6567 34.2912 11.03C34.4645 11.4033 34.5512 11.84 34.5512 12.34V12.67H30.8712V12.01H33.6612L33.4912 12.15C33.4912 11.6833 33.3912 11.3267 33.1912 11.08C32.9978 10.8333 32.7145 10.71 32.3412 10.71C31.9278 10.71 31.6078 10.8567 31.3812 11.15C31.1612 11.4433 31.0512 11.8533 31.0512 12.38V12.51C31.0512 13.0567 31.1845 13.4667 31.4512 13.74C31.7245 14.0067 32.1078 14.14 32.6012 14.14C32.8878 14.14 33.1545 14.1033 33.4012 14.03C33.6545 13.95 33.8945 13.8233 34.1212 13.65L34.4912 14.49C34.2512 14.6833 33.9645 14.8333 33.6312 14.94C33.2978 15.0467 32.9445 15.1 32.5712 15.1Z" fill="white"/>
</svg>
