<svg width="25" height="17" viewBox="0 0 25 17" fill="none" xmlns="http://www.w3.org/2000/svg">
<path fill-rule="evenodd" clip-rule="evenodd" d="M8.07688 1.44843H1.06877C0.801514 1.44843 0.58177 1.66818 0.58177 1.93544V6.01558H0.534256C0.239283 6.01558 -0.000259399 6.2571 -0.000259399 6.5501V7.14598C-0.000259399 7.44492 0.245222 7.68842 0.542175 7.68842H4.30359C1.50826 7.93786 -0.089344 10.5372 0.0848675 13.9165H2.57136C2.57334 15.5458 3.89577 16.8643 5.52505 16.8643C7.15434 16.8643 8.47677 15.5438 8.47875 13.9165H16.0748C16.0768 13.8631 16.0788 13.8116 16.0808 13.7581C16.0748 14.1165 16.0966 14.4966 16.1481 14.9024L22.7682 11.7844L24.3262 11.048C23.075 9.62456 21.5665 9.02669 19.7412 9.43846C19.4601 9.50973 19.1948 9.59288 18.9434 9.68791C19.2008 9.58892 19.472 9.50577 19.757 9.4345L17.6744 2.57488L18.6148 2.55706C18.8088 2.5531 19.0186 2.60655 19.1513 2.51153C19.3809 2.50559 19.5809 2.36701 19.7194 2.14924C19.8442 1.95523 19.9194 1.68996 19.9194 1.40092C19.9194 1.11189 19.8422 0.846608 19.7194 0.652599C19.6165 0.492244 19.4819 0.375442 19.3275 0.32199C19.3255 0.290315 19.3235 0.268539 19.3195 0.2626C19.0978 -0.091765 18.6662 0.0151382 18.2822 0.0151382L17.908 0.0388945C17.6368 0.0725492 17.3715 0.161635 17.1161 0.308132L16.6885 0.547675H16.3421L15.178 0.77336C14.7979 0.846608 14.7425 0.814933 14.8316 1.28412C14.8435 1.34351 14.8573 1.4029 14.8771 1.46031C14.9919 1.8028 15.083 1.6761 15.4374 1.60285L16.5282 1.37717C16.4866 1.81666 16.6252 2.35513 16.8212 2.98467C16.1936 3.51523 15.9125 4.27147 16.3401 5.26726L17.3814 8.47634C15.6353 9.71364 14.5861 10.8341 14.5267 12.6733H12.2164C10.793 11.5943 11.0286 9.67405 12.5906 8.44664V7.6904V6.53426C12.5886 6.16802 12.3926 6.0037 12.0283 6.0136H8.56388V1.93544C8.56388 1.66818 8.34413 1.44843 8.07688 1.44843ZM6.37434 5.27715H2.76933C2.74161 5.27715 2.71786 5.30091 2.71786 5.32863V5.43157C2.71786 5.45929 2.74161 5.48304 2.76933 5.48304H6.37434C6.40206 5.48304 6.42582 5.45929 6.42582 5.43157V5.32863C6.42582 5.30091 6.40404 5.27715 6.37434 5.27715ZM4.42237 3.03615C3.36719 3.12127 2.60303 3.91513 2.73567 4.9604H6.40998C6.53866 3.90919 5.77252 3.11335 4.70942 3.03615V2.74117H5.00242C5.03211 2.74117 5.05587 2.71742 5.05587 2.68772V2.49569C5.05587 2.46599 5.03211 2.44224 5.00242 2.44224H4.13729C4.1076 2.44224 4.08384 2.46599 4.08384 2.49569V2.68772C4.08384 2.71742 4.1076 2.74117 4.13729 2.74117H4.42435V3.03615H4.42237ZM22.7602 11.7884L20.1272 13.0356L20.9825 12.6436C21.5704 12.7683 22.0099 13.2909 22.0099 13.9145C22.0099 14.6332 21.4279 15.2152 20.7093 15.2152C19.9907 15.2152 19.4086 14.6332 19.4086 13.9145C19.4086 13.6928 19.4641 13.485 19.5611 13.3008L17.7635 14.1521C17.8843 15.6725 19.1572 16.8682 20.7073 16.8682C22.3386 16.8682 23.661 15.5458 23.661 13.9145C23.665 13.0791 23.3185 12.3249 22.7602 11.7884ZM19.3235 0.828791C19.3116 1.20889 19.2859 1.69788 19.2681 2.0265C19.2997 1.99879 19.3314 1.96315 19.3591 1.91762C19.4423 1.78894 19.4918 1.60483 19.4918 1.39894C19.4918 1.19305 19.4403 1.00894 19.3591 0.880263C19.3473 0.862446 19.3354 0.844628 19.3235 0.828791ZM6.82571 13.9185H4.2244C4.22638 14.6352 4.80841 15.2132 5.52505 15.2132C6.2417 15.2152 6.82373 14.6352 6.82571 13.9185Z" fill="#0C831F"/>
</svg>
