<svg width="31" height="31" viewBox="0 0 31 31" fill="none" xmlns="http://www.w3.org/2000/svg">
<g clip-path="url(#clip0_50_797)">
<path fill-rule="evenodd" clip-rule="evenodd" d="M15.5 14.5312C13.8948 14.5312 12.5938 13.2302 12.5938 11.625C12.5938 10.0198 13.8948 8.71875 15.5 8.71875C17.1052 8.71875 18.4062 10.0198 18.4062 11.625C18.4062 13.2302 17.1052 14.5312 15.5 14.5312ZM15.5 6.78125C12.8253 6.78125 10.6562 8.94931 10.6562 11.625C10.6562 14.3007 12.8253 16.4687 15.5 16.4687C18.1747 16.4687 20.3438 14.3007 20.3438 11.625C20.3438 8.94931 18.1747 6.78125 15.5 6.78125ZM15.5 28.0937C13.889 28.1025 5.8125 15.6753 5.8125 11.625C5.8125 6.27556 10.1496 1.9375 15.5 1.9375C20.8504 1.9375 25.1875 6.27556 25.1875 11.625C25.1875 15.6211 17.0858 28.1025 15.5 28.0937ZM15.5 0C9.08009 0 3.875 5.20509 3.875 11.625C3.875 16.4862 13.5673 31.0107 15.5 31C17.4026 31.0107 27.125 16.4203 27.125 11.625C27.125 5.20509 21.9199 0 15.5 0Z" fill="#0C831F"/>
</g>
<defs>
<clipPath id="clip0_50_797">
<rect width="31" height="31" fill="white"/>
</clipPath>
</defs>
</svg>
