<svg width="44" height="21" viewBox="0 0 44 21" fill="none" xmlns="http://www.w3.org/2000/svg">
<rect width="44" height="21" rx="2" fill="#0C831F"/>
<path d="M8.53633 11.47C8.53633 10.73 8.66966 10.09 8.93633 9.55C9.20966 9.01 9.59966 8.59333 10.1063 8.3C10.613 8 11.2163 7.85 11.9163 7.85C12.6097 7.85 13.2097 8 13.7163 8.3C14.223 8.59333 14.613 9.01 14.8863 9.55C15.1663 10.09 15.3063 10.7267 15.3063 11.46C15.3063 12.2 15.1663 12.8433 14.8863 13.39C14.613 13.93 14.223 14.35 13.7163 14.65C13.2097 14.95 12.6097 15.1 11.9163 15.1C11.2163 15.1 10.613 14.95 10.1063 14.65C9.60633 14.35 9.21966 13.93 8.94633 13.39C8.67299 12.8433 8.53633 12.2033 8.53633 11.47ZM9.88633 11.47C9.88633 12.2633 10.0563 12.8833 10.3963 13.33C10.7363 13.7767 11.243 14 11.9163 14C12.5697 14 13.073 13.7767 13.4263 13.33C13.7797 12.8833 13.9563 12.2633 13.9563 11.47C13.9563 10.67 13.7797 10.05 13.4263 9.61C13.0797 9.17 12.5763 8.95 11.9163 8.95C11.243 8.95 10.7363 9.17 10.3963 9.61C10.0563 10.05 9.88633 10.67 9.88633 11.47ZM16.6374 15V7.95H19.7674C20.5408 7.95 21.1308 8.13667 21.5374 8.51C21.9441 8.88333 22.1474 9.39667 22.1474 10.05C22.1474 10.6967 21.9441 11.21 21.5374 11.59C21.1308 11.97 20.5408 12.16 19.7674 12.16H17.9274V15H16.6374ZM17.9274 11.14H19.6174C20.0441 11.14 20.3641 11.0467 20.5774 10.86C20.7908 10.6667 20.8974 10.3967 20.8974 10.05C20.8974 9.70333 20.7908 9.43667 20.5774 9.25C20.3641 9.05667 20.0441 8.96 19.6174 8.96H17.9274V11.14ZM23.2976 15V7.95H28.0476V8.96H24.5376V10.91H27.8176V11.93H24.5376V13.98H28.0476V15H23.2976ZM29.2448 15V7.95H30.2148L34.3048 13.24H34.0448V7.95H35.2448V15H34.2748L30.1948 9.71H30.4448V15H29.2448Z" fill="white"/>
</svg>
