<svg width="18" height="8" viewBox="0 0 18 8" fill="none" xmlns="http://www.w3.org/2000/svg">
<path d="M17.8502 4.31968C17.8975 4.27831 17.9351 4.22922 17.9606 4.17524C17.9866 4.12149 18 4.06377 18 4.00546C18 3.94715 17.9866 3.88944 17.9606 3.83568C17.9351 3.7817 17.8975 3.73262 17.8502 3.69124L13.7593 0.135684C13.7121 0.0932346 13.6557 0.0593759 13.5933 0.036083C13.5309 0.0127902 13.4638 0.000529588 13.3959 1.67808e-05C13.328 -0.000496026 13.2607 0.0107492 13.1978 0.0330962C13.135 0.0554433 13.0779 0.0884447 13.0299 0.130175C12.9818 0.171905 12.9439 0.221528 12.9182 0.276148C12.8924 0.330769 12.8795 0.389293 12.8801 0.448306C12.8807 0.507319 12.8948 0.565639 12.9216 0.619863C12.9484 0.674087 12.9874 0.723129 13.0362 0.764128L16.2542 3.56102H0.511364C0.375742 3.56102 0.245674 3.60784 0.149775 3.69119C0.0538753 3.77454 0 3.88759 0 4.00546C0 4.12333 0.0538753 4.23638 0.149775 4.31973C0.245674 4.40308 0.375742 4.44991 0.511364 4.44991H16.2542L13.0362 7.24679C12.943 7.33062 12.8915 7.44288 12.8927 7.55942C12.8938 7.67595 12.9476 7.78742 13.0424 7.86982C13.1372 7.95223 13.2655 7.99897 13.3996 7.99998C13.5336 8.001 13.6628 7.9562 13.7593 7.87524L17.8502 4.31968Z" fill="black"/>
</svg>
