<svg width="233" height="71" viewBox="0 0 233 71" fill="none" xmlns="http://www.w3.org/2000/svg">
<path d="M27.8076 67.6154C27.8076 68.3195 27.5397 69.02 27.0032 69.5568C25.9307 70.6294 24.1925 70.6294 23.1203 69.5568C22.5842 69.02 22.316 68.3195 22.316 67.6154C22.316 67.14 22.4423 66.6657 22.6876 66.2421C22.8009 66.0389 22.946 65.8483 23.1207 65.6739C23.6571 65.1371 24.3616 64.8696 25.0621 64.8696C25.763 64.8696 26.4671 65.1375 27.0036 65.6739C27.1783 65.8483 27.3237 66.0389 27.4366 66.2421C27.6819 66.6653 27.8076 67.14 27.8076 67.6154Z" fill="#006B3A"/>
<path opacity="0.25" d="M22.6876 68.9879C22.8009 68.7846 22.946 68.5941 23.1207 68.4194C24.1932 67.3468 25.9314 67.3468 27.0032 68.4194C27.1779 68.5941 27.3237 68.7846 27.4366 68.9879C27.3237 69.1915 27.1779 69.3821 27.0032 69.5565C25.931 70.629 24.1929 70.629 23.1207 69.5565C22.946 69.3821 22.8006 69.1915 22.6876 68.9879Z" fill="white"/>
<path opacity="0.25" d="M27.4366 66.2421H22.6876C22.8009 66.0389 22.946 65.8483 23.1207 65.6739C23.6571 65.1371 24.3616 64.8696 25.0621 64.8696C25.7631 64.8696 26.4671 65.1375 27.0036 65.6739C27.1779 65.8483 27.3233 66.0389 27.4366 66.2421Z" fill="#010101"/>
<path d="M43.5273 67.6154C43.5273 68.3195 43.2591 69.02 42.7227 69.5568C41.6501 70.6294 39.9123 70.6294 38.8397 69.5568C38.3036 69.02 38.0354 68.3195 38.0354 67.6154C38.0354 67.14 38.1586 66.6657 38.407 66.2421C38.52 66.0389 38.665 65.8483 38.8397 65.6739C39.3765 65.1371 40.0803 64.8696 40.7812 64.8696C41.4821 64.8696 42.1862 65.1375 42.7227 65.6739C42.897 65.8483 43.0424 66.0389 43.1557 66.2421C43.4049 66.6653 43.5273 67.14 43.5273 67.6154Z" fill="#006B3A"/>
<path opacity="0.25" d="M38.4074 68.9879C38.5207 68.7846 38.6661 68.5941 38.8408 68.4194C39.913 67.3468 41.6512 67.3468 42.7237 68.4194C42.8984 68.5941 43.0435 68.7846 43.1564 68.9879C43.0435 69.1915 42.8984 69.3821 42.7237 69.5565C41.6512 70.629 39.913 70.629 38.8408 69.5565C38.6661 69.3821 38.5203 69.1915 38.4074 68.9879Z" fill="white"/>
<path opacity="0.25" d="M43.1561 66.2421H38.4071C38.52 66.0389 38.6651 65.8483 38.8398 65.6739C39.3766 65.1371 40.0803 64.8696 40.7812 64.8696C41.4821 64.8696 42.1862 65.1375 42.7227 65.6739C42.8974 65.8483 43.0428 66.0389 43.1561 66.2421Z" fill="#010101"/>
<path d="M16.0939 37.4107L14.7535 38.7833L13.4127 40.1565L9.63599 44.02C8.65415 43.0283 8.04676 41.6653 8.04676 40.1565L9.38718 38.7833L10.728 37.4107L14.5043 33.5473C15.4872 34.5383 16.0939 35.9016 16.0939 37.4107Z" fill="#006B3A"/>
<path opacity="0.25" d="M16.0939 37.4107L14.7538 38.7829H9.38754L10.7283 37.4107H16.0939Z" fill="#010101"/>
<path d="M53.0282 53.8858L46.9934 55.259L40.9591 56.6319L19.7124 61.4677C19.7089 61.4677 19.7089 61.4677 19.7089 61.4677C17.9902 60.5367 16.8241 58.7219 16.8241 56.6319L28.8935 53.8861L50.1433 49.0499C51.8585 49.9803 53.0282 51.7954 53.0282 53.8858Z" fill="#006B3A"/>
<path opacity="0.25" d="M53.0282 53.8858L46.9934 55.259H22.8588L28.8935 53.8858H53.0282Z" fill="#010101"/>
<path d="M57.7962 45.6477L50.3018 47.021L42.8038 48.3942L15.8874 53.3236C14.0688 52.4324 12.8152 50.5584 12.8152 48.3942L20.3135 47.021L27.8079 45.6477L54.7243 40.718C56.543 41.6099 57.7962 43.4836 57.7962 45.6477Z" fill="#006B3A"/>
<path opacity="0.25" d="M57.7962 45.6477L50.3018 47.021H20.3135L27.8076 45.6477H57.7962Z" fill="#010101"/>
<path d="M16.0939 37.4109H2.74578C1.23066 37.4109 0 36.1799 0 34.6648C0 33.9088 0.307045 33.2206 0.80432 32.7234C1.30195 32.2257 1.98663 31.9191 2.74578 31.9191H10.6023C12.127 31.9191 13.5097 32.5427 14.5043 33.5475C14.8343 33.8796 15.1219 34.2547 15.3573 34.6648C15.826 35.4691 16.0939 36.4093 16.0939 37.4109Z" fill="#D6DF24"/>
<path d="M15.3577 34.6642H0C0 33.9083 0.307045 33.2201 0.80432 32.7228C1.30195 32.2252 1.98663 31.9185 2.74578 31.9185H10.6023C12.127 31.9185 13.5097 32.5421 14.5043 33.5469C14.8343 33.8793 15.1219 34.2541 15.3577 34.6642Z" fill="white"/>
<path d="M57.7962 45.6477H13.539C12.014 45.6477 10.6316 45.0241 9.63634 44.0197C9.30706 43.6872 9.01943 43.3124 8.78367 42.902C8.31534 42.0976 8.04711 41.1578 8.04711 40.1562H52.3047C53.1736 40.1562 53.9941 40.3563 54.7243 40.7184C55.7033 41.1963 56.5172 41.9621 57.06 42.9023C57.528 43.7095 57.7962 44.6465 57.7962 45.6477Z" fill="#70BF44"/>
<path opacity="0.5" d="M57.0597 42.902H8.78367C8.31534 42.0976 8.04711 41.1578 8.04711 40.1562H52.3047C53.1736 40.1562 53.9941 40.3563 54.7243 40.7184C55.703 41.1963 56.5172 41.9621 57.0597 42.902Z" fill="white"/>
<path d="M53.0282 53.8858H18.3071C17.4385 53.8858 16.6176 53.6853 15.8874 53.3232C14.9091 52.8453 14.0945 52.0798 13.5517 51.1396C13.0837 50.3318 12.8152 49.3951 12.8152 48.3938H47.5362C48.4793 48.3938 49.3676 48.6328 50.1433 49.0493C51.038 49.5338 51.7809 50.2608 52.2948 51.1396C52.7603 51.944 53.0282 52.8842 53.0282 53.8858Z" fill="#00A94F"/>
<path opacity="0.5" d="M52.2948 51.1402H13.5517C13.0838 50.3323 12.8152 49.3957 12.8152 48.3944H47.5362C48.4793 48.3944 49.3676 48.6333 50.1433 49.0498C51.038 49.5344 51.7813 50.2614 52.2948 51.1402Z" fill="white"/>
<path d="M49.0191 59.3774C49.0191 60.8928 47.7912 62.1231 46.2733 62.1231H22.3162C21.3731 62.1231 20.4876 61.8877 19.7129 61.4677C19.7094 61.4677 19.7094 61.4677 19.7094 61.4677C18.8144 60.9832 18.0683 60.2565 17.5576 59.3774C17.0925 58.5734 16.8242 57.6332 16.8242 56.6319H46.2733C47.7912 56.6319 49.0191 57.8626 49.0191 59.3774Z" fill="#00964C"/>
<path opacity="0.5" d="M49.0189 59.3774H17.5571C17.0919 58.5734 16.8237 57.6332 16.8237 56.6319H46.2728C47.7911 56.6319 49.0189 57.8626 49.0189 59.3774Z" fill="white"/>
<path d="M18.9582 0.000465393H30.6546V37.6145H18.9582V0.000465393Z" fill="#F9CC46"/>
<path d="M31.1187 29.6276V29.5249C31.1187 23.9084 35.2925 20.7652 41.8361 20.7652C44.2064 20.7652 47.2465 21.2808 48.4828 21.7958V21.3324C48.4828 18.756 46.8855 17.2617 43.2785 17.2617C40.393 17.2617 37.9712 17.8801 35.4982 18.8591L33.4371 11.0784C36.6834 9.84176 40.393 9.01733 45.2881 9.01733C51.0077 9.01733 54.7173 10.2025 57.1906 12.6758C59.3032 14.7881 60.1277 17.5193 60.1277 21.5897V37.6144H48.4313V34.7804C46.4732 36.893 43.8453 38.2843 40.3418 38.2843C34.9314 38.2839 31.1187 35.1922 31.1187 29.6276ZM48.5859 27.2062V26.0214C47.916 25.7638 46.8855 25.5577 45.9064 25.5577C43.5877 25.5577 42.2995 26.9485 42.2995 28.7008V28.8035C42.2995 30.4524 43.4846 31.5345 44.9789 31.5345C47.0404 31.5342 48.5859 29.8853 48.5859 27.2062Z" fill="#F9CC46"/>
<path d="M61.3647 9.48107H73.0614V13.3971C74.8645 11.0784 77.6986 8.81123 81.6662 8.81123C87.5915 8.81123 91.3015 12.7273 91.3015 19.0652V37.6147H79.6051V22.8267C79.6051 20.4052 78.1623 19.014 76.4104 19.014C74.6584 19.014 73.0614 20.4049 73.0614 22.8267V37.6147H61.3647V9.48107Z" fill="#F9CC46"/>
<path d="M91.7137 23.7538V23.6504C91.7137 14.7365 97.0725 8.81084 103.719 8.81084C107.996 8.81084 110.366 10.6659 112.169 12.6754V0H123.866V37.614H112.169V34.1617C110.263 36.2228 108.099 38.2839 103.823 38.2839C97.021 38.2839 91.7137 32.3586 91.7137 23.7538ZM112.427 23.5993V23.4962C112.427 20.7137 110.418 18.4465 107.739 18.4465C105.059 18.4465 103.05 20.6622 103.05 23.4962V23.5993C103.05 26.4333 105.059 28.649 107.739 28.649C110.418 28.649 112.427 26.4333 112.427 23.5993Z" fill="#F9CC46"/>
<path d="M123.3 34.2136L127.267 27.5665C130.668 29.6791 134.481 30.7097 137.676 30.7097C138.809 30.7097 139.376 30.452 139.376 29.7822V29.6791C139.376 29.1127 138.861 28.7516 136.027 28.0303C128.916 26.2783 124.536 24.3721 124.536 18.5495V18.4465C124.536 12.2632 129.483 8.81084 136.8 8.81084C141.437 8.81084 146.023 9.99597 149.423 12.0571L145.713 19.0133C142.725 17.3644 139.118 16.3854 136.748 16.3854C135.614 16.3854 135.099 16.6945 135.099 17.261V17.3644C135.099 17.9309 135.717 18.2916 138.551 19.0133C145.662 20.7649 149.939 22.7233 149.939 28.494V28.5967C149.939 34.7285 145.353 38.2835 137.727 38.2835C132.265 38.2839 127.319 36.893 123.3 34.2136Z" fill="#F9CC46"/>
<path d="M150.3 0.000350952H161.997V13.2426C163.8 10.9238 166.634 8.81085 170.601 8.81085C176.527 8.81085 180.237 12.727 180.237 19.0648V37.6144H168.54V22.8263C168.54 20.4049 167.097 19.0137 165.345 19.0137C163.594 19.0137 161.997 20.4045 161.997 22.8263V37.6144H150.3V0.000350952Z" fill="#F9CC46"/>
<path d="M181.267 28.0303V9.48072H192.964V24.2684C192.964 26.6902 194.407 28.0818 196.159 28.0818C197.91 28.0818 199.508 26.6906 199.508 24.2684V9.48072H211.205V37.614H199.508V33.8529C197.704 36.1713 194.87 38.2839 190.903 38.2839C184.977 38.2839 181.267 34.3681 181.267 28.0303Z" fill="#F9CC46"/>
<path d="M214.811 28.1848V18.498H211.513V9.48107H214.811V2.42182H226.508V9.48107H233V18.498H226.508V25.6088C226.508 27.7211 227.487 28.4944 229.342 28.4944C230.424 28.4944 231.66 28.1849 232.897 27.6184V36.6354C231.042 37.6144 228.259 38.2327 225.425 38.2327C218.521 38.2327 214.811 35.038 214.811 28.1848Z" fill="#F9CC46"/>
<path d="M70.038 37.919H81.7344V41.6805C83.5378 39.3617 86.3718 37.2487 90.236 37.2487C94.0491 37.2487 96.9858 38.8976 98.5316 41.8866C100.902 39.2071 103.736 37.2487 108.064 37.2487C114.093 37.2487 117.803 41.1649 117.803 47.5028V66.0523H106.106V51.1615C106.106 48.7909 104.715 47.4516 103.015 47.4516C101.314 47.4516 99.7683 48.7909 99.7683 51.1615V66.0523H88.0722V51.1615C88.0722 48.7909 86.681 47.4516 84.9806 47.4516C83.2802 47.4516 81.7344 48.7909 81.7344 51.1615V66.0523H70.038V37.919Z" fill="#029447"/>
<path d="M117.959 58.0655V57.9628C117.959 52.3463 122.132 49.2032 128.676 49.2032C131.046 49.2032 134.086 49.7188 135.322 50.2337V49.7703C135.322 47.1939 133.725 45.6996 130.119 45.6996C127.233 45.6996 124.811 46.318 122.338 47.297L120.277 39.5163C123.523 38.2797 127.233 37.4552 132.128 37.4552C137.847 37.4552 141.557 38.6404 144.03 41.1137C146.143 43.226 146.967 45.9573 146.967 50.0276V66.0523H135.271V63.2183C133.313 65.3309 130.685 66.7221 127.181 66.7221C121.771 66.7218 117.959 63.6305 117.959 58.0655ZM135.426 55.6441V54.4593C134.756 54.2017 133.726 53.9956 132.747 53.9956C130.428 53.9956 129.139 55.3865 129.139 57.1387V57.2415C129.139 58.8903 130.325 59.9724 131.819 59.9724C133.88 59.972 135.426 58.3232 135.426 55.6441Z" fill="#029447"/>
<path d="M148.204 37.919H159.901V43.587C161.499 39.7739 164.075 37.3007 168.712 37.5068V49.9249H167.476C162.529 49.9249 159.901 52.6555 159.901 58.8899V66.0523H148.204V37.919Z" fill="#029447"/>
<path d="M168.661 28.4383H180.357V46.5756L186.386 37.9193H199.113L190.302 49.3581L199.268 66.0526H186.746L182.676 58.3238L180.357 61.3125V66.053H168.661V28.4383Z" fill="#029447"/>
<path d="M199.886 56.6228V46.9359H196.588V37.919H199.886V30.8597H211.583V37.919H218.075V46.9359H211.583V54.0467C211.583 56.159 212.562 56.9323 214.417 56.9323C215.498 56.9323 216.735 56.6228 217.972 56.0563V65.0733C216.117 66.0523 213.335 66.6706 210.501 66.6706C203.596 66.6706 199.886 63.4759 199.886 56.6228Z" fill="#029447"/>
</svg>
